HIERARCHY
ROOT Hips
{
	OFFSET -3.958830 18.904000 13.208200
	CHANNELS 6 Xposition Yposition Zposition Zrotation Yrotation Xrotation 
	JOINT LHipJoint
	{
		OFFSET 0.000000 0.000000 0.000000
		CHANNELS 3 Zrotation Yrotation Xrotation
		JOINT LeftUpLeg
		{
			OFFSET 1.800000 -1.400000 0.085000
			CHANNELS 3 Zrotation Yrotation Xrotation
			JOINT LeftLeg
			{
				OFFSET 2.215000 -6.000000 0.000000
				CHANNELS 3 Zrotation Yrotation Xrotation
				JOINT LeftFoot
				{
					OFFSET 2.500000 -6.900000 0.000000
					CHANNELS 3 Zrotation Yrotation Xrotation
					JOINT LeftToeBase
					{
						OFFSET 0.200000 -0.500000 1.950000
						CHANNELS 3 Zrotation Yrotation Xrotation
						End Site
						{
							OFFSET 0.000000 0.000000 0.000000
						}
					}
				}
			}
		}
	}
	JOINT RHipJoint
	{
		OFFSET 0.000000 0.000000 0.000000
		CHANNELS 3 Zrotation Yrotation Xrotation
		JOINT RightUpLeg
		{
			OFFSET -1.800000 -1.400000 0.085000
			CHANNELS 3 Zrotation Yrotation Xrotation
			JOINT RightLeg
			{
				OFFSET -2.215000 -6.000000 0.000000
				CHANNELS 3 Zrotation Yrotation Xrotation
				JOINT RightFoot
				{
					OFFSET -2.500000 -6.900000 0.000000
					CHANNELS 3 Zrotation Yrotation Xrotation
					JOINT RightToeBase
					{
						OFFSET -0.200000 -0.500000 1.950000
						CHANNELS 3 Zrotation Yrotation Xrotation
						End Site
						{
							OFFSET 0.000000 0.000000 0.000000
						}
					}
				}
			}
		}
	}
	JOINT LowerBack
	{
		OFFSET 0.000000 0.000000 0.000000
		CHANNELS 3 Zrotation Yrotation Xrotation
		JOINT Spine
		{
			OFFSET -0.087000 1.940000 -0.288900
			CHANNELS 3 Zrotation Yrotation Xrotation
			JOINT Spine1
			{
				OFFSET 0.000000 1.950000 0.060000
				CHANNELS 3 Zrotation Yrotation Xrotation
				JOINT Neck
				{
					OFFSET 0.000000 0.000000 0.000000
					CHANNELS 3 Zrotation Yrotation Xrotation
					JOINT Neck1
					{
						OFFSET 0.000000 1.600000 0.340000
						CHANNELS 3 Zrotation Yrotation Xrotation
						JOINT Head
						{
							OFFSET 0.000000 1.667000 -0.240000
							CHANNELS 3 Zrotation Yrotation Xrotation
							End Site
							{
								OFFSET 0.000000 0.000000 0.000000
							}
						}
					}
				}
				JOINT LeftShoulder
				{
					OFFSET 0.000000 0.000000 0.000000
					CHANNELS 3 Zrotation Yrotation Xrotation
					JOINT LeftArm
					{
						OFFSET 2.700000 1.550000 -0.730000
						CHANNELS 3 Zrotation Yrotation Xrotation
						JOINT LeftForeArm
						{
							OFFSET 5.450000 0.000000 0.000000
							CHANNELS 3 Zrotation Yrotation Xrotation
							JOINT LeftHand
							{
								OFFSET 3.450000 0.000000 0.000000
								CHANNELS 3 Zrotation Yrotation Xrotation
								JOINT LeftHandIndex1
								{
									OFFSET 0.750000 0.000000 0.000000
									CHANNELS 3 Zrotation Yrotation Xrotation
									End Site
									{
										OFFSET 0.000000 0.000000 0.000000
									}
								}
							}
						}
					}
				}
				JOINT RightShoulder
				{
					OFFSET 0.000000 0.000000 0.000000
					CHANNELS 3 Zrotation Yrotation Xrotation
					JOINT RightArm
					{
						OFFSET -2.700000 1.550000 -0.730000
						CHANNELS 3 Zrotation Yrotation Xrotation
						JOINT RightForeArm
						{
							OFFSET -5.450000 0.000000 0.000000
							CHANNELS 3 Zrotation Yrotation Xrotation
							JOINT RightHand
							{
								OFFSET -3.450000 0.000000 0.000000
								CHANNELS 3 Zrotation Yrotation Xrotation
								JOINT RightHandIndex1
								{
									OFFSET -0.750000 0.000000 0.000000
									CHANNELS 3 Zrotation Yrotation Xrotation
									End Site
									{
										OFFSET 0.000000 0.000000 0.000000
									}
								}
							}
						}
					}
				}
			}
		}
	}
}
MOTION
Frames: 13
Frame Time: 0.016667
0.815690 17.253200 -7.175110 -14.855625 -0.394361 14.231604 -15.855925 11.516332 4.639032 3.579895 -11.595686 -43.655322 10.089570 3.979827 54.015668 0.608828 8.274332 1.409245 0.281740 0.271450 0.399870 18.184125 -7.086534 5.217704 -35.303333 2.834757 -54.383762 2.031544 -17.997029 66.816512 -1.572528 -10.928814 0.405252 0.108250 -0.188450 0.209370 -2.457080 -4.797310 -9.896383 29.479892 -7.883040 38.682560 4.468527 -1.739375 2.767618 7.474796 13.035737 -20.862514 37.629481 -20.638522 55.944207 -0.917970 -1.441620 2.503250 -40.163600 -35.772945 12.601085 -37.193465 -15.890342 -4.621225 -6.164995 -22.552147 -0.063894 -3.474607 3.209435 0.202390 -0.003070 0.309060 -0.019630 23.762497 34.734477 6.445129 30.555663 29.949402 -6.476013 13.826379 39.956427 3.671018 2.221902 -1.527319 0.102140 -0.036160 -0.112050 -0.102700 
0.731200 17.254710 -7.216770 -14.523986 -0.206059 14.612675 -15.901084 11.625331 4.900405 4.204988 -11.963731 -44.928054 10.151519 4.103271 54.202842 0.628508 8.330466 1.392737 0.268520 0.260400 0.390090 18.088405 -7.342822 4.778246 -33.836547 3.149074 -50.816481 4.767368 -15.783644 57.190747 -1.173380 -9.378784 0.848681 0.101670 -0.175240 0.204570 -2.277476 -4.760069 -9.796831 25.550135 -5.943106 39.240740 6.283390 -0.603858 2.893382 7.052711 12.856544 -20.127992 37.293242 -20.657986 56.420528 -1.107550 -1.234710 3.194070 -39.476113 -34.341441 11.880093 -36.777424 -14.877890 -4.041258 -4.548141 -20.165019 -0.346566 -3.526783 3.165348 0.186220 0.006220 0.300820 -0.012910 24.484737 33.436666 6.656248 29.347677 27.788441 -7.607678 9.795426 39.177724 2.302506 2.241684 -1.502917 0.099180 -0.031640 -0.112290 -0.094710 
0.629780 17.243070 -7.249470 -14.089040 0.174988 15.091955 -15.958094 11.743906 5.157943 4.765970 -12.270022 -46.230815 10.470798 4.098306 54.324965 0.648937 8.372839 1.380808 0.246720 0.233670 0.376600 17.981861 -7.621712 4.303499 -32.113676 3.279311 -47.204190 6.374832 -13.231382 47.946723 -0.801452 -7.782574 1.341482 0.086400 -0.161110 0.203920 -2.064947 -4.713275 -9.675012 21.197877 -3.789381 39.211641 8.240331 0.527782 3.178033 6.564492 12.657422 -19.578285 37.244192 -21.024034 56.993814 -1.330580 -1.150930 4.447730 -38.397843 -32.813963 11.225402 -37.000472 -13.744902 -3.657561 -3.229894 -18.484452 -0.550271 -3.575266 3.132747 0.167530 0.020510 0.286340 -0.011370 24.881856 32.136011 7.010711 28.503671 25.492989 -8.505461 5.579027 37.881328 0.879577 2.267310 -1.479847 0.096440 -0.037690 -0.108230 -0.089260 
0.526950 17.234790 -7.278310 -13.508598 0.289042 15.695854 -16.011353 11.867820 5.362582 5.154801 -12.405840 -47.244895 10.651683 4.134648 53.928837 0.650625 8.319302 1.398813 0.229390 0.211260 0.362690 17.881158 -7.906792 3.851558 -30.185009 3.239498 -44.021303 6.662122 -10.423782 39.012310 -0.483791 -6.149016 1.881845 0.071740 -0.147700 0.204880 -1.862947 -4.626369 -9.522275 16.597829 -1.514070 38.762455 10.139696 1.646863 3.639404 5.941431 12.319164 -18.843330 36.436648 -21.230732 58.359258 -1.738610 -1.157100 5.655810 -36.975301 -31.094345 10.435749 -37.497299 -12.959037 -3.203275 -2.240700 -16.651631 -0.670311 -3.624517 3.095994 0.151400 0.031270 0.274700 -0.006870 25.228772 30.654330 7.258971 28.383098 23.472510 -9.034700 2.174824 36.454450 -0.260230 2.299728 -1.458253 0.096760 -0.042070 -0.104840 -0.080870 
0.421930 17.219730 -7.301700 -12.841202 0.385916 16.524389 -16.059967 11.895928 5.549009 5.700316 -12.507769 -48.432319 10.331800 4.488357 53.739890 0.654995 8.319675 1.395302 0.219420 0.199360 0.347030 17.804352 -8.142700 3.458598 -28.459828 3.042680 -40.964285 6.953326 -8.181415 30.649630 -0.261904 -4.749034 2.369284 0.065720 -0.136960 0.199410 -1.698084 -4.434591 -9.373291 11.998147 0.738733 37.530571 11.730341 2.617607 4.319012 5.217418 11.908577 -18.138500 35.422014 -21.396018 60.301173 -1.697680 -1.297430 6.756000 -34.754307 -29.341421 9.581675 -38.703262 -12.646466 -2.549492 -1.641778 -14.377675 -0.712747 -3.671657 3.050351 0.143340 0.034930 0.266160 0.000610 24.904837 29.058324 7.444041 29.244799 21.746114 -8.825388 -0.456339 34.116052 -1.095623 2.342586 -1.426555 0.094060 -0.041140 -0.104650 -0.072580 
0.326760 17.205610 -7.330190 -12.221083 0.268440 17.376022 -16.119820 11.895316 5.712621 6.350703 -12.495052 -49.762682 9.628292 5.078680 53.604103 0.651128 8.353795 1.378403 0.210570 0.189780 0.329320 17.730469 -8.304248 3.110374 -26.631926 2.915191 -37.950562 6.768652 -6.288446 23.203515 -0.117843 -3.617033 2.784207 0.063150 -0.122260 0.188440 -1.519378 -4.306863 -9.227253 7.593169 2.972793 36.205420 13.092449 3.656932 5.076903 4.526893 11.530952 -17.446272 34.147058 -20.994226 62.609651 -1.228960 -1.048800 7.542600 -32.498032 -27.672437 8.801615 -40.322969 -12.582519 -2.016999 -1.083505 -12.407566 -0.750373 -3.711465 3.003101 0.148690 0.036170 0.258990 0.008660 24.389088 27.580467 7.567855 30.094560 20.105113 -8.315382 -2.624893 31.127213 -1.650699 2.385864 -1.383110 0.082390 -0.029740 -0.100910 -0.068870 
0.242670 17.191500 -7.356590 -11.755664 0.251879 18.199381 -16.158797 11.854582 5.819522 6.856920 -12.381788 -50.926963 9.121336 5.514670 53.375111 0.642059 8.358706 1.373671 0.204480 0.185230 0.309870 17.688533 -8.400655 2.876192 -25.069807 2.871133 -35.429788 6.617023 -5.096947 17.965240 -0.041282 -2.959609 3.037742 0.064470 -0.108870 0.169810 -1.412654 -4.183934 -9.110816 4.112391 4.835287 35.004126 13.970981 4.773256 5.499167 3.906592 11.014227 -16.259495 31.476792 -20.002930 65.156499 -0.937280 -1.108410 7.896110 -30.764051 -25.389596 7.745297 -42.031364 -12.630135 -1.623044 -1.230161 -10.751119 -0.724219 -3.745432 2.958390 0.153790 0.030610 0.248440 0.014820 24.255553 25.555042 7.385175 30.701959 18.144462 -7.734296 -3.677977 28.058164 -1.805100 2.435196 -1.337925 0.070290 -0.011020 -0.095400 -0.063390 
0.160100 17.185790 -7.378430 -11.405016 0.624906 19.120711 -16.167252 11.753375 5.916993 7.366145 -12.253865 -52.142639 8.910674 5.713798 52.880377 0.612129 8.287274 1.391738 0.203200 0.185300 0.285640 17.684016 -8.501076 2.704475 -23.651150 2.825377 -33.472494 6.249893 -4.370378 14.729419 0.000528 -2.599590 3.186417 0.071200 -0.099420 0.140590 -1.399674 -3.953287 -9.023137 1.251311 6.260611 33.482539 14.321265 5.588156 6.095561 3.170772 10.194334 -15.315817 27.929596 -18.328981 68.700488 -0.032330 -1.176670 8.303950 -28.285549 -23.387613 6.810740 -44.619214 -13.020567 -1.176748 -1.509867 -9.151658 -0.700565 -3.763014 2.916613 0.172230 0.015630 0.236040 0.019290 23.476917 23.769229 7.308562 32.031528 16.064461 -7.156575 -3.994810 25.263750 -1.771455 2.473437 -1.295468 0.052090 0.009590 -0.089900 -0.062270 
0.077660 17.178240 -7.400410 -10.911631 1.097361 19.936751 -16.154564 11.642388 5.998244 7.749293 -12.181258 -53.098310 8.638132 5.870418 52.223049 0.589015 8.177343 1.429181 0.212630 0.186040 0.262970 17.697123 -8.598677 2.590285 -22.560220 2.721614 -31.891724 5.871079 -3.870244 12.372013 0.020994 -2.385180 3.279900 0.073480 -0.089910 0.117470 -1.441431 -3.699895 -8.971738 -1.195159 7.464315 32.236010 13.954153 6.373740 6.515732 2.396975 9.054020 -14.545144 23.153257 -15.988017 72.267143 1.277710 -1.846450 8.763760 -26.161597 -21.629600 5.932475 -46.737226 -13.424136 -0.948127 -1.671999 -7.914952 -0.701001 -3.759270 2.900002 0.192850 -0.008430 0.223420 0.030950 23.019151 22.394143 7.413033 33.320484 13.793115 -6.574239 -3.672482 22.074126 -1.555692 2.518867 -1.265936 0.042940 0.021840 -0.090410 -0.055380 
-0.003040 17.169770 -7.421880 -10.483838 1.650348 20.712765 -16.125140 11.480726 6.091336 8.409540 -12.086520 -54.184833 8.182381 6.171344 51.826175 0.600495 8.143337 1.454521 0.199490 0.165400 0.218990 17.729151 -8.672062 2.531910 -21.603376 2.624864 -30.444840 5.626632 -3.405865 9.789798 0.041200 -2.229530 3.361270 0.059380 -0.064720 0.094980 -1.535991 -3.379013 -8.976031 -3.178447 8.224908 30.948304 12.934180 6.897805 6.670412 1.694267 7.347235 -13.891147 17.020199 -13.179561 75.694162 1.778280 -3.135300 9.815020 -24.483305 -19.692503 5.137622 -48.694720 -13.205946 -1.218480 -1.501536 -7.653620 -0.738704 -3.745973 2.886343 0.193650 -0.026010 0.204800 0.052090 22.823030 21.311699 7.543293 35.018958 11.651506 -6.062760 -3.188492 18.835538 -1.323251 2.578768 -1.236026 0.036350 0.040110 -0.085960 -0.030110 
-0.074580 17.158080 -7.435620 -10.313701 2.050590 21.673820 -16.085906 11.308506 6.172479 9.066564 -11.903427 -55.278458 7.764195 6.474809 51.343840 0.610626 8.105401 1.480863 0.156630 0.121000 0.134330 17.774178 -8.683396 2.562387 -20.801611 2.647334 -29.580245 5.704484 -3.012608 7.286485 0.069014 -2.137442 3.423884 0.033630 -0.011060 0.063550 -1.662871 -3.090345 -9.043952 -4.758119 8.735652 29.684998 11.464781 7.361722 6.257213 0.915193 5.228722 -12.983400 9.622012 -8.242968 77.959540 3.538510 -3.695280 11.055680 -23.072795 -17.224537 4.293927 -50.771862 -12.520737 -1.722819 -1.439616 -7.729154 -0.786447 -3.746094 2.883068 0.186680 -0.032020 0.159520 0.065570 22.957713 19.869022 7.375101 36.772748 9.458917 -5.733266 -1.886521 15.817998 -0.988863 2.634920 -1.197151 0.018080 0.059120 -0.054390 -0.001720 
-0.136590 17.154060 -7.447930 -10.059354 2.833815 22.749691 -16.047161 11.122668 6.274254 9.650617 -11.861906 -56.514955 7.319831 6.711996 50.694819 0.607944 8.037919 1.509643 0.120050 0.076940 0.039640 17.827411 -8.649932 2.605638 -20.273421 2.649558 -28.946161 5.609703 -2.641100 4.941560 0.090629 -2.087600 3.461969 0.012230 0.049560 0.039670 -1.800150 -2.871825 -9.131323 -6.084118 8.973804 28.465980 9.796653 7.617750 5.548514 -0.010642 2.461581 -12.094023 0.655910 -2.202618 78.620709 6.119870 -4.787370 11.737600 -21.337181 -14.251199 3.293340 -53.264403 -12.142114 -2.057459 -1.461357 -7.543630 -0.842054 -3.747688 2.902971 0.183850 -0.044570 0.110540 0.083150 22.939292 18.369661 7.165718 38.700461 7.278207 -5.722868 -0.543422 13.370505 -0.726936 2.681284 -1.167514 0.001160 0.076030 -0.013700 0.031550 
-0.195010 17.162360 -7.456080 -9.865384 3.904600 23.767846 -16.021401 10.978107 6.363083 10.147778 -11.812590 -57.697400 7.128492 6.759242 49.769942 0.584504 7.917314 1.562906 0.069800 0.012110 -0.045660 17.872305 -8.581063 2.642712 -19.962590 2.694312 -28.556782 5.837526 -2.436500 3.391803 0.113199 -2.088785 3.481737 -0.015580 0.113200 0.014820 -1.905592 -2.782609 -9.193213 -7.087617 9.043279 27.301873 8.394276 7.742206 4.628129 -0.861646 -0.553183 -11.667058 -8.681120 3.897218 77.344897 7.500550 -5.323920 12.535000 -19.767816 -11.501168 2.538417 -55.689553 -11.438700 -2.519896 -1.916990 -7.721412 -0.884210 -3.750338 2.909554 0.184230 -0.048420 0.061420 0.098840 22.877557 17.383868 7.200608 40.548651 4.982843 -5.958155 0.650925 11.083625 -0.540831 2.719799 -1.136906 -0.031050 0.103030 0.029930 0.056560 
